<svg viewBox="0 0 256 256" xmlns="http://www.w3.org/2000/svg" role="img" aria-label="OutClaw">
  <rect width="256" height="256" rx="48" fill="#0364B8"/>
  <rect x="44" y="72" width="168" height="112" rx="10" fill="#FFFFFF"/>
  <path d="M 44 84 L 128 144 L 212 84 L 212 184 L 44 184 Z" fill="#D5E9F7"/>
  <path d="M 44 84 L 128 144 L 212 84 L 212 92 L 128 150 L 44 92 Z" fill="#9FC7E8"/>
  <circle cx="196" cy="86" r="15" fill="#E03131"/>
  <g transform="translate(198 198)">
    <path d="M 0 -32 L 8 -8 L 32 0 L 8 8 L 0 32 L -8 8 L -32 0 L -8 -8 Z" fill="#FFD23F" stroke="#1F3A5F" stroke-width="1.2"/>
    <path d="M 0 -14 L 3 -3 L 14 0 L 3 3 L 0 14 L -3 3 L -14 0 L -3 -3 Z" fill="#FFFFFF"/>
  </g>
</svg>
