<svg viewBox="0 0 256 256" xmlns="http://www.w3.org/2000/svg" role="img" aria-label="ProjClaw">
  <rect width="256" height="256" rx="48" fill="#0F773D"/>
  <rect x="48" y="52" width="160" height="152" rx="10" fill="#FFFFFF"/>
  <rect x="48" y="52" width="160" height="22" fill="#0F773D"/>
  <g stroke="#C3DEB8" stroke-width="1" stroke-dasharray="2 3">
    <line x1="98" y1="74" x2="98" y2="204"/>
    <line x1="148" y1="74" x2="148" y2="204"/>
    <line x1="198" y1="74" x2="198" y2="204"/>
  </g>
  <rect x="62" y="92" width="80" height="18" rx="4" fill="#F5B24E"/>
  <rect x="88" y="122" width="96" height="18" rx="4" fill="#7AB87A"/>
  <rect x="118" y="152" width="72" height="18" rx="4" fill="#E56B6F"/>
  <rect x="72" y="182" width="60" height="14" rx="3" fill="#B8C9DD"/>
  <g transform="translate(198 198)">
    <path d="M 0 -32 L 8 -8 L 32 0 L 8 8 L 0 32 L -8 8 L -32 0 L -8 -8 Z" fill="#FFD23F" stroke="#1F3A5F" stroke-width="1.2"/>
    <path d="M 0 -14 L 3 -3 L 14 0 L 3 3 L 0 14 L -3 3 L -14 0 L -3 -3 Z" fill="#FFFFFF"/>
  </g>
</svg>
