<svg viewBox="0 0 256 256" xmlns="http://www.w3.org/2000/svg" role="img" aria-label="VisClaw">
  <rect width="256" height="256" rx="48" fill="#2368C4"/>
  <rect x="48" y="52" width="160" height="152" rx="10" fill="#FFFFFF"/>
  <rect x="70" y="78" width="52" height="40" rx="6" fill="#2368C4"/>
  <path d="M 170 100 L 150 80 L 130 100 L 150 120 Z" fill="#F5B24E" stroke="#1F3A5F" stroke-width="1.2"/>
  <circle cx="100" cy="166" r="22" fill="#7AB87A"/>
  <g stroke="#1F3A5F" stroke-width="2.5" fill="none">
    <path d="M 122 98 L 142 100"/>
    <path d="M 150 120 L 150 140"/>
    <path d="M 96 118 L 100 144"/>
  </g>
  <g fill="#1F3A5F">
    <path d="M 140 99 L 146 95 L 146 103 Z"/>
    <path d="M 149 138 L 145 132 L 153 132 Z" transform="translate(0 4)"/>
    <path d="M 100 144 L 96 138 L 104 138 Z" transform="translate(0 4)"/>
  </g>
  <g transform="translate(198 198)">
    <path d="M 0 -32 L 8 -8 L 32 0 L 8 8 L 0 32 L -8 8 L -32 0 L -8 -8 Z" fill="#FFD23F" stroke="#1F3A5F" stroke-width="1.2"/>
    <path d="M 0 -14 L 3 -3 L 14 0 L 3 3 L 0 14 L -3 3 L -14 0 L -3 -3 Z" fill="#FFFFFF"/>
  </g>
</svg>
