<svg xmlns="http://www.w3.org/2000/svg" viewBox="0 0 680 260" font-family="'DM Sans',sans-serif">
  <defs>
    <marker id="a4" markerWidth="8" markerHeight="6" refX="8" refY="3" orient="auto"><path d="M0,0 L8,3 L0,6" fill="#746355"/></marker>
  </defs>
  <text x="340" y="20" text-anchor="middle" fill="#4A494B" font-size="14" font-weight="700" letter-spacing="0.1em" style="text-transform:uppercase">MALLKONFIGURATION — TRE NIVÅER</text>
  <line x1="120" y1="30" x2="560" y2="30" stroke="#E5E5E5"/>

  <!-- Hub level -->
  <rect x="10" y="50" width="210" height="190" rx="8" fill="#F7F6F5" stroke="#E5E5E5"/>
  <text x="115" y="72" text-anchor="middle" fill="#999" font-size="10" font-weight="700" letter-spacing="0.05em" style="text-transform:uppercase">HUBBNIVÅ</text>
  <rect x="22" y="84" width="186" height="36" rx="4" fill="#1F1E20"/>
  <text x="115" y="106" text-anchor="middle" fill="white" font-size="11" font-weight="600">Malldefinitioner (~50 st)</text>
  <rect x="30" y="130" width="170" height="24" rx="4" fill="white" stroke="#E5E5E5"/>
  <text x="115" y="146" text-anchor="middle" fill="#4A494B" font-size="9">Egenkontroll sättning skåp</text>
  <rect x="30" y="158" width="170" height="24" rx="4" fill="white" stroke="#E5E5E5"/>
  <text x="115" y="174" text-anchor="middle" fill="#4A494B" font-size="9">Egenkontroll sättning brunn</text>
  <rect x="30" y="186" width="170" height="24" rx="4" fill="white" stroke="#E5E5E5"/>
  <text x="115" y="202" text-anchor="middle" fill="#4A494B" font-size="9">Geodetisk inmätning</text>
  <text x="115" y="228" text-anchor="middle" fill="#999" font-size="9">+ egna mallar...</text>

  <!-- Arrow hub → project -->
  <line x1="220" y1="145" x2="248" y2="145" stroke="#746355" stroke-width="1.5" marker-end="url(#a4)"/>
  <text x="234" y="138" text-anchor="middle" fill="#746355" font-size="9" font-weight="600">väljs</text>

  <!-- Project level -->
  <rect x="250" y="50" width="200" height="190" rx="8" fill="#F7F6F5" stroke="#E5E5E5"/>
  <text x="350" y="72" text-anchor="middle" fill="#999" font-size="10" font-weight="700" letter-spacing="0.05em" style="text-transform:uppercase">PROJEKTNIVÅ</text>
  <rect x="262" y="84" width="176" height="36" rx="4" fill="#1F1E20"/>
  <text x="350" y="106" text-anchor="middle" fill="white" font-size="11" font-weight="600">Tilldelade mallar</text>
  <rect x="270" y="130" width="160" height="24" rx="4" fill="#E8F5EE" stroke="#2D8653"/>
  <text x="350" y="146" text-anchor="middle" fill="#2D8653" font-size="9">✓ Sättning skåp</text>
  <rect x="270" y="158" width="160" height="24" rx="4" fill="#E8F5EE" stroke="#2D8653"/>
  <text x="350" y="174" text-anchor="middle" fill="#2D8653" font-size="9">✓ Sättning brunn</text>
  <rect x="270" y="186" width="160" height="24" rx="4" fill="#F7F6F5" stroke="#E5E5E5"/>
  <text x="350" y="202" text-anchor="middle" fill="#999" font-size="9">✗ Geodetisk inmätning</text>

  <!-- Arrow project → installation -->
  <line x1="450" y1="145" x2="478" y2="145" stroke="#746355" stroke-width="1.5" marker-end="url(#a4)"/>
  <text x="464" y="138" text-anchor="middle" fill="#746355" font-size="9" font-weight="600">skapas</text>

  <!-- Installation level -->
  <rect x="480" y="50" width="195" height="190" rx="8" fill="#F7F6F5" stroke="#E5E5E5"/>
  <text x="578" y="72" text-anchor="middle" fill="#999" font-size="10" font-weight="700" letter-spacing="0.05em" style="text-transform:uppercase">INSTALLATIONSNIVÅ</text>
  <rect x="492" y="84" width="171" height="36" rx="4" fill="#1F1E20"/>
  <text x="578" y="106" text-anchor="middle" fill="white" font-size="11" font-weight="600">Ifyllda checklistor</text>
  <rect x="500" y="130" width="155" height="24" rx="4" fill="#E8F5EE" stroke="#2D8653"/>
  <text x="578" y="146" text-anchor="middle" fill="#2D8653" font-size="9">✓ Skåp — Klar (10/10)</text>
  <rect x="500" y="158" width="155" height="24" rx="4" fill="#FFF8E6" stroke="#C07800"/>
  <text x="578" y="174" text-anchor="middle" fill="#C07800" font-size="9">⏳ Brunn — Pågår (4/8)</text>
</svg>
