<svg xmlns="http://www.w3.org/2000/svg" viewBox="0 0 680 200" font-family="'DM Sans',sans-serif">
  <defs>
    <marker id="a5" markerWidth="8" markerHeight="6" refX="8" refY="3" orient="auto"><path d="M0,0 L8,3 L0,6" fill="#746355"/></marker>
    <marker id="a5g" markerWidth="8" markerHeight="6" refX="8" refY="3" orient="auto"><path d="M0,0 L8,3 L0,6" fill="#2D8653"/></marker>
    <marker id="a5o" markerWidth="8" markerHeight="6" refX="8" refY="3" orient="auto"><path d="M0,0 L8,3 L0,6" fill="#C07800"/></marker>
  </defs>
  <text x="340" y="20" text-anchor="middle" fill="#4A494B" font-size="14" font-weight="700" letter-spacing="0.1em" style="text-transform:uppercase">WIZARD-UI STEGFLÖDE</text>
  <line x1="140" y1="30" x2="540" y2="30" stroke="#E5E5E5"/>

  <!-- Main flow -->
  <rect x="10" y="60" width="110" height="50" rx="6" fill="#1F1E20"/>
  <text x="65" y="82" text-anchor="middle" fill="white" font-size="10" font-weight="600">Identifiering</text>
  <text x="65" y="98" text-anchor="middle" fill="#746355" font-size="9">Steg 0</text>

  <line x1="120" y1="85" x2="143" y2="85" stroke="#746355" stroke-width="1.5" marker-end="url(#a5)"/>

  <rect x="145" y="55" width="180" height="60" rx="6" fill="#1F1E20"/>
  <text x="235" y="78" text-anchor="middle" fill="white" font-size="10" font-weight="600">Kontrollpunkter 1 – N</text>
  <text x="235" y="94" text-anchor="middle" fill="#746355" font-size="9">Choice / Ja-Nej / Datum / Text</text>
  <text x="235" y="108" text-anchor="middle" fill="#2D8653" font-size="9">Auto-advance 600ms →</text>

  <line x1="325" y1="85" x2="348" y2="85" stroke="#746355" stroke-width="1.5" marker-end="url(#a5)"/>

  <rect x="350" y="60" width="100" height="50" rx="6" fill="#1F1E20"/>
  <text x="400" y="82" text-anchor="middle" fill="white" font-size="10" font-weight="600">Signatur</text>
  <text x="400" y="98" text-anchor="middle" fill="#746355" font-size="9">Canvas + Lås</text>

  <line x1="450" y1="85" x2="473" y2="85" stroke="#746355" stroke-width="1.5" marker-end="url(#a5)"/>

  <rect x="475" y="60" width="120" height="50" rx="6" fill="#2D8653"/>
  <text x="535" y="82" text-anchor="middle" fill="white" font-size="10" font-weight="600">Sammanfattning</text>
  <text x="535" y="98" text-anchor="middle" fill="#E8F5EE" font-size="9">PDF + Skicka in</text>

  <!-- Undo arrow -->
  <path d="M235,55 Q235,42 175,42 Q145,42 145,55" fill="none" stroke="#C07800" stroke-width="1.2" stroke-dasharray="4,3" marker-end="url(#a5o)"/>
  <text x="190" y="38" fill="#C07800" font-size="9" font-weight="600">Ångra</text>

  <!-- Completion celebration -->
  <path d="M325,115 Q337,145 360,145 Q370,145 370,135" fill="none" stroke="#2D8653" stroke-width="1.2" stroke-dasharray="4,3"/>
  <text x="345" y="158" fill="#2D8653" font-size="9" font-weight="600">✓ Celebration</text>

  <!-- Progress bar legend -->
  <text x="40" y="172" fill="#4A494B" font-size="10" font-weight="600">Progressbar:</text>
  <rect x="120" y="162" width="30" height="10" rx="3" fill="#2D8653"/><text x="158" y="172" fill="#4A494B" font-size="9">Godkänt</text>
  <rect x="210" y="162" width="30" height="10" rx="3" fill="#B55852"/><text x="248" y="172" fill="#4A494B" font-size="9">Ej godkänt</text>
  <rect x="310" y="162" width="30" height="10" rx="3" fill="#999"/><text x="348" y="172" fill="#4A494B" font-size="9">Ej relevant</text>
  <rect x="410" y="162" width="30" height="10" rx="3" fill="#C07800"/><text x="448" y="172" fill="#4A494B" font-size="9">Skippad</text>
  <circle cx="510" cy="167" r="4" fill="#6CB4EE"/><text x="520" y="172" fill="#4A494B" font-size="9">Har kommentar/foto</text>
</svg>
