<svg xmlns="http://www.w3.org/2000/svg" viewBox="0 0 680 220" font-family="'DM Sans',sans-serif">
  <defs>
    <marker id="a6r" markerWidth="8" markerHeight="6" refX="8" refY="3" orient="auto"><path d="M0,0 L8,3 L0,6" fill="#C07800"/></marker>
    <marker id="a6l" markerWidth="8" markerHeight="6" refX="0" refY="3" orient="auto"><path d="M8,0 L0,3 L8,6" fill="#2D8653"/></marker>
  </defs>
  <text x="340" y="20" text-anchor="middle" fill="#4A494B" font-size="14" font-weight="700" letter-spacing="0.1em" style="text-transform:uppercase">FORTNOX-SYNKRONISERING</text>
  <line x1="140" y1="30" x2="540" y2="30" stroke="#E5E5E5"/>

  <!-- NSChecks -->
  <rect x="20" y="50" width="180" height="140" rx="8" fill="#1F1E20"/>
  <text x="110" y="78" text-anchor="middle" fill="white" font-size="12" font-weight="700">NSChecks</text>
  <text x="110" y="96" text-anchor="middle" fill="#746355" font-size="10">SharePoint-lista</text>
  <rect x="35" y="108" width="150" height="28" rx="4" fill="rgba(255,255,255,0.08)"/>
  <text x="110" y="127" text-anchor="middle" fill="#C8C8CA" font-size="10">Kundfakturor (cache)</text>
  <rect x="35" y="142" width="150" height="28" rx="4" fill="rgba(255,255,255,0.08)"/>
  <text x="110" y="161" text-anchor="middle" fill="#C8C8CA" font-size="10">FortnoxID = nyckel</text>

  <!-- Azure Function -->
  <rect x="250" y="70" width="180" height="100" rx="8" fill="#E8F5EE" stroke="#2D8653"/>
  <text x="340" y="98" text-anchor="middle" fill="#2D8653" font-size="12" font-weight="700">Azure Function</text>
  <text x="340" y="116" text-anchor="middle" fill="#2D8653" font-size="10">NSChecks-FortnoxSync</text>
  <rect x="268" y="128" width="144" height="28" rx="4" fill="white" stroke="#2D8653" stroke-dasharray="3,2"/>
  <text x="340" y="147" text-anchor="middle" fill="#2D8653" font-size="10">⏱ var 30:e minut</text>

  <!-- Fortnox -->
  <rect x="480" y="50" width="180" height="140" rx="8" fill="#FFF8E6" stroke="#C07800"/>
  <text x="570" y="78" text-anchor="middle" fill="#C07800" font-size="12" font-weight="700">Fortnox API</text>
  <text x="570" y="96" text-anchor="middle" fill="#C07800" font-size="10">/3/invoices</text>
  <rect x="495" y="108" width="150" height="28" rx="4" fill="white" stroke="#C07800"/>
  <text x="570" y="127" text-anchor="middle" fill="#C07800" font-size="10">Momsberäkning</text>
  <rect x="495" y="142" width="150" height="28" rx="4" fill="white" stroke="#C07800"/>
  <text x="570" y="161" text-anchor="middle" fill="#C07800" font-size="10">Bokföring</text>

  <!-- Arrows -->
  <line x1="200" y1="105" x2="248" y2="105" stroke="#C07800" stroke-width="2" marker-end="url(#a6r)"/>
  <text x="224" y="98" text-anchor="middle" fill="#C07800" font-size="9" font-weight="600">Nya fakturor</text>
  <line x1="248" y1="135" x2="200" y2="135" stroke="#2D8653" stroke-width="2" marker-end="url(#a6l)"/>
  <text x="224" y="150" text-anchor="middle" fill="#2D8653" font-size="9" font-weight="600">Status tillbaka</text>

  <line x1="430" y1="105" x2="478" y2="105" stroke="#C07800" stroke-width="2" marker-end="url(#a6r)"/>
  <text x="454" y="98" text-anchor="middle" fill="#C07800" font-size="9" font-weight="600">POST</text>
  <line x1="478" y1="135" x2="430" y2="135" stroke="#2D8653" stroke-width="2" marker-end="url(#a6l)"/>
  <text x="454" y="150" text-anchor="middle" fill="#2D8653" font-size="9" font-weight="600">GET</text>

  <!-- Sync Now -->
  <rect x="290" y="184" width="100" height="26" rx="13" fill="#1F1E20"/>
  <text x="340" y="201" text-anchor="middle" fill="white" font-size="10" font-weight="600">Sync Now</text>
</svg>
